# xmcd
#
# Track frame offsets: 
#        150
#        18470
#        34925
#        50365
#        67953
#        83112
#        98704
#        113413
#        129311
#        142807
#        158097
#        172790
#        186322
#        199359
#        213446
#        226413
#        242354
#        257872
#        274641
#        289639
#
# Disc length: 4028 seconds
#
# Revision: 0
# Processed by: cddbd v1.5.2PL0 Copyright (c) Steve Scherf et al.
# Submitted via: ExactAudioCopy v1.1
#
DISCID=0a0fba14
DTITLE=Various Artist - MENT - De Vlaamse Top 10 2018 - CD1
DYEAR=2018
DGENRE=Chanson
TTITLE0=Dana Winner - Dit Wonder
TTITLE1=Bløf Feat. Geike Arnaert - Zoutelande
TTITLE2=Willy Sommers - Als Je Diep In Mijn Ogen Kijkt
TTITLE3=Christoff - Door Jou (Nieuw Geluk)
TTITLE4=Jo Vally - Wat Als Ik Nog Van Je Hou
TTITLE5=Luc Steeno - Ik Zal Wachten
TTITLE6=Lindsay - Ware Liefde
TTITLE7=Herbert - Laat Ons Verbonden Zijn
TTITLE8=Mieke - Eerste Liefde
TTITLE9=Metejoor - Samen Alleen
TTITLE10=Micha Marah - Als Ik Naar Hem Kijk
TTITLE11=Steve Tielens and De Zingende Vaten - In Ons Cafeetje
TTITLE12=Swoop - Haka
TTITLE13=Van Echelpoel - Wiesegaidanie
TTITLE14=Johan Veugelers - One Night Stand
TTITLE15=Matthias Lens - Heidi
TTITLE16=Get Ready! - Ik Weet Niet Hoe
TTITLE17=Rudy Meyns - Neem Me In Je Armen
TTITLE18=Lisa Del Bo - Een Goed Jaar Voor De Rozen
TTITLE19=Sasha and Davy - Lente
EXTD=
EXTT0=
EXTT1=
EXTT2=
EXTT3=
EXTT4=
EXTT5=
EXTT6=
EXTT7=
EXTT8=
EXTT9=
EXTT10=
EXTT11=
EXTT12=
EXTT13=
EXTT14=
EXTT15=
EXTT16=
EXTT17=
EXTT18=
EXTT19=
PLAYORDER=
